<?xml version="1.0" encoding="UTF-8"?>
<svg width="40px" height="50px" viewBox="0 0 40 50" version="1.1" xmlns="http://www.w3.org/2000/svg" xmlns:xlink="http://www.w3.org/1999/xlink">
    <!-- Generator: Sketch 50.2 (55047) - http://www.bohemiancoding.com/sketch -->
    <title>Untitled</title>
    <desc>Created with Sketch.</desc>
    <defs></defs>
    <g id="Page-1" stroke="none" stroke-width="1" fill="none" fill-rule="evenodd">
        <g id="logo-white" fill="#FFFFFF">
            <polygon id="Fill-447" points="11.6426513 10.528125 16.2379251 10.528125 16.2379251 5.90277778 11.6426513 5.90277778"></polygon>
            <polygon id="Fill-449" points="17.7521614 10.5265046 22.3589625 10.5265046 22.3589625 5.90277778 17.7521614 5.90277778"></polygon>
            <polygon id="Fill-451" points="23.5158501 10.525 28.1228818 10.525 28.1228818 5.90277778 23.5158501 5.90277778"></polygon>
            <polygon id="Fill-453" points="17.7521614 16.4314815 22.3589625 16.4314815 22.3589625 11.8055556 17.7521614 11.8055556"></polygon>
            <polygon id="Fill-455" points="11.6426513 28.3524306 16.2379251 28.3524306 16.2379251 23.7268519 11.6426513 23.7268519"></polygon>
            <polygon id="Fill-457" points="23.5158501 28.3489583 28.1228818 28.3489583 28.1228818 23.7268519 23.5158501 23.7268519"></polygon>
            <polygon id="Fill-459" points="11.6426513 34.2552083 16.2379251 34.2552083 16.2379251 29.6296296 11.6426513 29.6296296"></polygon>
            <polygon id="Fill-461" points="17.7521614 34.2527778 22.3589625 34.2527778 22.3589625 29.6296296 17.7521614 29.6296296"></polygon>
            <polygon id="Fill-463" points="23.5158501 34.2517361 28.1228818 34.2517361 28.1228818 29.6296296 23.5158501 29.6296296"></polygon>
            <polygon id="Fill-465" points="5.87896254 40.1520833 10.4406916 40.1520833 10.4406916 35.5324074 5.87896254 35.5324074"></polygon>
            <polygon id="Fill-467" points="11.6426513 40.1579861 16.2379251 40.1579861 16.2379251 35.5324074 11.6426513 35.5324074"></polygon>
            <polygon id="Fill-469" points="17.7521614 40.1520833 22.3589625 40.1520833 22.3589625 35.5324074 17.7521614 35.5324074"></polygon>
            <polygon id="Fill-471" points="23.5158501 40.1520833 28.1228818 40.1520833 28.1228818 35.5324074 23.5158501 35.5324074"></polygon>
            <polygon id="Fill-473" points="29.3948127 40.1520833 34.0014986 40.1520833 34.0014986 35.5324074 29.3948127 35.5324074"></polygon>
            <polygon id="Fill-475" points="35.2737752 40.1579861 39.8808069 40.1579861 39.8808069 35.5324074 35.2737752 35.5324074"></polygon>
            <polygon id="Fill-477" points="35.2737752 34.2592593 39.8808069 34.2592593 39.8808069 29.6296296 35.2737752 29.6296296"></polygon>
            <polygon id="Fill-479" points="35.2737752 28.3540509 39.8808069 28.3540509 39.8808069 23.7268519 35.2737752 23.7268519"></polygon>
            <polygon id="Fill-481" points="35.2737752 22.452662 39.8808069 22.452662 39.8808069 17.8240741 35.2737752 17.8240741"></polygon>
            <polygon id="Fill-483" points="35.2737752 16.4319444 39.8808069 16.4319444 39.8808069 11.8055556 35.2737752 11.8055556"></polygon>
            <polygon id="Fill-485" points="35.2737752 10.5283565 39.8808069 10.5283565 39.8808069 5.90277778 35.2737752 5.90277778"></polygon>
            <polygon id="Fill-487" points="0 40.1528935 4.60680115 40.1528935 4.60680115 35.5324074 0 35.5324074"></polygon>
            <polygon id="Fill-489" points="0 34.2501157 4.60680115 34.2501157 4.60680115 29.6296296 0 29.6296296"></polygon>
            <polygon id="Fill-491" points="0 28.3491898 4.60680115 28.3491898 4.60680115 23.7268519 0 23.7268519"></polygon>
            <polygon id="Fill-493" points="0 22.4494213 4.60680115 22.4494213 4.60680115 17.8240741 0 17.8240741"></polygon>
            <polygon id="Fill-495" points="0 16.4314815 4.60680115 16.4314815 4.60680115 11.8055556 0 11.8055556"></polygon>
            <polygon id="Fill-497" points="0 10.5265046 4.60680115 10.5265046 4.60680115 5.90277778 0 5.90277778"></polygon>
            <polygon id="Fill-499" points="5.87896254 4.62453704 10.4414986 4.62453704 10.4414986 0 5.87896254 0"></polygon>
            <polygon id="Fill-501" points="11.6426513 4.62476852 16.2380403 4.62476852 16.2380403 0 11.6426513 0"></polygon>
            <polygon id="Fill-503" points="17.7521614 4.62476852 22.3589625 4.62476852 22.3589625 0 17.7521614 0"></polygon>
            <polygon id="Fill-505" points="23.5158501 4.62233796 28.1228818 4.62233796 28.1228818 0 23.5158501 0"></polygon>
            <polygon id="Fill-507" points="29.3948127 4.62395833 34.0014986 4.62395833 34.0014986 0 29.3948127 0"></polygon>
            <polygon id="Fill-509" points="35.2737752 4.62569444 39.8808069 4.62569444 39.8808069 0 35.2737752 0"></polygon>
            <polygon id="Fill-511" points="0 4.62476852 4.60680115 4.62476852 4.60680115 0 0 0"></polygon>
            <polygon id="Fill-513" points="1.89002882 43.75 3.31827089 47.9350694 3.33544669 47.9350694 4.68668588 43.75 6.5767147 43.75 6.5767147 49.8358796 5.3195389 49.8358796 5.3195389 45.5229167 5.30247839 45.5229167 3.80576369 49.8358796 2.77095101 49.8358796 1.27423631 45.5655093 1.25717579 45.5655093 1.25717579 49.8358796 0 49.8358796 0 43.75"></polygon>
            <path d="M11.985268,49.3412153 C11.5234813,49.741794 10.8848646,49.9421412 10.0695331,49.9421412 C9.24278963,49.9421412 8.60278963,49.7432986 8.14953314,49.3454977 C7.69627666,48.9478125 7.46953314,48.3340394 7.46953314,47.504294 L7.46953314,43.7198032 L8.81235735,43.7198032 L8.81235735,47.504294 C8.81235735,47.6692245 8.82653602,47.8311458 8.85500865,47.9901736 C8.88359654,48.1493171 8.94342363,48.2899421 9.03472046,48.4120486 C9.12578674,48.5343866 9.25281844,48.6336921 9.41523919,48.7104282 C9.57777522,48.7871644 9.7958732,48.8254745 10.0695331,48.8254745 C10.5484957,48.8254745 10.8791009,48.7189931 11.0615793,48.5059144 C11.2440576,48.2927199 11.3353545,47.9590394 11.3353545,47.504294 L11.3353545,43.7198032 L12.6780634,43.7198032 L12.6780634,47.504294 C12.6780634,48.3283681 12.4470548,48.9406366 11.985268,49.3412153" id="Fill-515"></path>
            <polygon id="Fill-520" points="13.3717579 44.8751157 13.3717579 43.75 18.3749856 43.75 18.3749856 44.8751157 16.5446686 44.8751157 16.5446686 49.8358796 15.2019597 49.8358796 15.2019597 44.8751157"></polygon>
            <path d="M21.4382709,43.75 L23.7217291,49.8358796 L22.3277233,49.8358796 L21.8658213,48.4806713 L19.5823631,48.4806713 L19.1034006,49.8358796 L17.7521614,49.8358796 L20.0613256,43.75 L21.4382709,43.75 Z M21.5151585,47.4833333 L20.7454755,45.2501157 L20.728415,45.2501157 L19.9330259,47.4833333 L21.5151585,47.4833333 Z" id="Fill-522"></path>
            <path d="M27.3010605,43.7198495 C27.591781,43.7198495 27.8569107,43.7453125 28.0964496,43.7965856 C28.3358732,43.8476273 28.5411758,43.9316551 28.7121268,44.0479745 C28.8831931,44.1645255 29.0158732,44.3193866 29.1099366,44.5125579 C29.204,44.7058449 29.2510317,44.9445023 29.2510317,45.2285301 C29.2510317,45.5353588 29.1811758,45.7910301 29.041464,45.9956597 C28.9016369,46.2001736 28.6950663,46.3678819 28.4214063,46.4985532 C28.7977752,46.6065394 29.0784669,46.795544 29.2638271,47.0654514 C29.449072,47.3353588 29.5417522,47.660706 29.5417522,48.0413773 C29.5417522,48.348206 29.4819251,48.613831 29.3621556,48.8382523 C29.2423862,49.0629051 29.0813487,49.2461227 28.878928,49.3881366 C28.6765072,49.5301505 28.4456138,49.6352431 28.1862478,49.7034144 C27.9266513,49.7717014 27.6602536,49.8057292 27.3865937,49.8057292 L24.4274006,49.8057292 L24.4274006,43.7198495 L27.3010605,43.7198495 Z M27.1299942,46.1831597 C27.3695331,46.1831597 27.5661902,46.1264468 27.7200807,46.0126736 C27.8740865,45.8991319 27.9509741,45.7144097 27.9509741,45.4586227 C27.9509741,45.3167245 27.9253833,45.2001736 27.8740865,45.1092014 C27.8227896,45.0183449 27.754317,44.9471644 27.6687839,44.8961227 C27.5832507,44.8449653 27.4849222,44.8095486 27.373683,44.7895255 C27.2625591,44.7697338 27.1470548,44.7596644 27.0274006,44.7596644 L25.7701095,44.7596644 L25.7701095,46.1831597 L27.1299942,46.1831597 Z M27.2069971,48.7657986 C27.3380634,48.7657986 27.4635965,48.7530671 27.5832507,48.7274884 C27.7030202,48.7019097 27.8083804,48.6593171 27.8997925,48.5997106 C27.9908588,48.5399884 28.0635965,48.4589699 28.1177752,48.3567708 C28.1719539,48.254456 28.1990432,48.1237847 28.1990432,47.9646412 C28.1990432,47.6521412 28.1106282,47.4291088 27.9339135,47.295544 C27.7571988,47.1620949 27.5234236,47.0951968 27.2325879,47.0951968 L25.7701095,47.0951968 L25.7701095,48.7657986 L27.2069971,48.7657986 Z" id="Fill-524"></path>
            <polygon id="Fill-529" points="31.544438 43.75 31.544438 48.7107639 34.5206916 48.7107639 34.5206916 49.8358796 30.2017291 49.8358796 30.2017291 43.75"></polygon>
            <polygon id="Fill-531" points="39.8408069 43.75 39.8408069 44.8751157 36.6165994 44.8751157 36.6165994 46.1792824 39.5756772 46.1792824 39.5756772 47.2190972 36.6165994 47.2190972 36.6165994 48.7107639 39.9092795 48.7107639 39.9092795 49.8358796 35.2737752 49.8358796 35.2737752 43.75"></polygon>
        </g>
    </g>
</svg>